# xmcd
#
# Track frame offsets:
#	150
#	22250
#	30207
#	46488
#	63035
#	77150
#	91338
#	107819
#	120822
#	136695
#
# Disc length: 1958 seconds
#
# Revision: 0
# Processed by: cddbd v1.5.1PL0 Copyright (c) Steve Scherf et al.
# Submitted via: dBpowerAMP V4.0
#
DISCID=6f07a40a
DTITLE=Willie Nelson - America's Troubadour
DYEAR=2005
DGENRE=Country
TTITLE0=City Of New Orleans
TTITLE1=If You Got The Money
TTITLE2=Always On My Mind
TTITLE3=Georgia On My Mind
TTITLE4=Blue Eyes Crying In The Rain
TTITLE5=Good Hearted Woman
TTITLE6=Angel Flying Too Close To The Ground
TTITLE7=To All The Girls I've Loved Before
TTITLE8=Whiskey River
TTITLE9=On The Road Again
EXTD=
EXTT0=
EXTT1=
EXTT2=
EXTT3=
EXTT4=
EXTT5=
EXTT6=
EXTT7=
EXTT8=
EXTT9=
PLAYORDER=
